<svg xmlns="http://www.w3.org/2000/svg" width="1480" height="780" viewBox="0 0 1480 780" font-family="'Segoe UI','Microsoft YaHei','PingFang SC',sans-serif"><defs>
<marker id="arr" viewBox="0 0 10 10" refX="9" refY="5" markerWidth="7" markerHeight="7" orient="auto-start-reverse"><path d="M0,0 L10,5 L0,10 z" fill="#2F6FAD"/></marker>
<marker id="arrG" viewBox="0 0 10 10" refX="9" refY="5" markerWidth="7" markerHeight="7" orient="auto-start-reverse"><path d="M0,0 L10,5 L0,10 z" fill="#8A8A8A"/></marker>
<marker id="arrO" viewBox="0 0 10 10" refX="9" refY="5" markerWidth="7" markerHeight="7" orient="auto-start-reverse"><path d="M0,0 L10,5 L0,10 z" fill="#C05621"/></marker>
<marker id="arrG2" viewBox="0 0 10 10" refX="9" refY="5" markerWidth="7" markerHeight="7" orient="auto-start-reverse"><path d="M0,0 L10,5 L0,10 z" fill="#2E9E5B"/></marker>
</defs><rect x="75" y="30" width="170" height="52" rx="8" fill="#FDF2E9" stroke="#C05621" stroke-width="1.5"/><text x="160" y="61" font-size="13" fill="#1F2937" text-anchor="middle" font-weight="700">客户端</text><line x1="160" y1="82" x2="160" y2="730" stroke="#B8C2CC" stroke-width="1.2" stroke-dasharray="5 4"/><rect x="295" y="30" width="170" height="52" rx="8" fill="#EAF2FB" stroke="#2F6FAD" stroke-width="1.5"/><text x="380" y="61" font-size="13" fill="#1F2937" text-anchor="middle" font-weight="700">Router</text><line x1="380" y1="82" x2="380" y2="730" stroke="#B8C2CC" stroke-width="1.2" stroke-dasharray="5 4"/><rect x="535" y="30" width="170" height="52" rx="8" fill="#EAF7EF" stroke="#2E9E5B" stroke-width="1.5"/><text x="620" y="61" font-size="13" fill="#1F2937" text-anchor="middle" font-weight="700">scheduler</text><line x1="620" y1="82" x2="620" y2="730" stroke="#B8C2CC" stroke-width="1.2" stroke-dasharray="5 4"/><rect x="775" y="30" width="170" height="52" rx="8" fill="#EAF7EF" stroke="#2E9E5B" stroke-width="1.5"/><text x="860" y="61" font-size="13" fill="#1F2937" text-anchor="middle" font-weight="700">fetcher</text><line x1="860" y1="82" x2="860" y2="730" stroke="#B8C2CC" stroke-width="1.2" stroke-dasharray="5 4"/><rect x="1035" y="30" width="170" height="52" rx="8" fill="#FDF0EF" stroke="#C0392B" stroke-width="1.5"/><text x="1120" y="61" font-size="13" fill="#1F2937" text-anchor="middle" font-weight="700">B 站 API</text><line x1="1120" y1="82" x2="1120" y2="730" stroke="#B8C2CC" stroke-width="1.2" stroke-dasharray="5 4"/><rect x="1255" y="30" width="170" height="52" rx="8" fill="#FEF9E7" stroke="#B7950B" stroke-width="1.5"/><text x="1340" y="61" font-size="13" fill="#1F2937" text-anchor="middle" font-weight="700">SQLite</text><line x1="1340" y1="82" x2="1340" y2="730" stroke="#B8C2CC" stroke-width="1.2" stroke-dasharray="5 4"/><line x1="160" y1="130" x2="380" y2="130" stroke="#C05621" stroke-width="1.6" marker-end="url(#arr)"/><text x="270.0" y="124" font-size="11.5" fill="#C05621" text-anchor="middle" font-weight="600">POST /vtuber/fetch</text><line x1="380" y1="180" x2="620" y2="180" stroke="#2F6FAD" stroke-width="1.6" marker-end="url(#arr)"/><text x="500.0" y="174" font-size="11.5" fill="#2F6FAD" text-anchor="middle" font-weight="600">is_fetch_running() → false</text><line x1="380" y1="230" x2="620" y2="230" stroke="#2F6FAD" stroke-width="1.6" marker-end="url(#arr)"/><text x="500.0" y="224" font-size="11.5" fill="#2F6FAD" text-anchor="middle" font-weight="600">await async_fetch_and_update()</text><line x1="620" y1="300" x2="860" y2="300" stroke="#2E9E5B" stroke-width="1.6" marker-end="url(#arr)"/><text x="740.0" y="294" font-size="11.5" fill="#2E9E5B" text-anchor="middle" font-weight="600">fetch_bilibili_user_info(mid) · tenacity 重试≤3</text><line x1="860" y1="350" x2="1120" y2="350" stroke="#C0392B" stroke-width="1.6" marker-end="url(#arr)"/><text x="990.0" y="344" font-size="11.5" fill="#C0392B" text-anchor="middle" font-weight="600">GET /x/space/wbi/acc/info（WBI 签名）</text><line x1="1120" y1="400" x2="860" y2="400" stroke="#8A8A8A" stroke-width="1.6" stroke-dasharray="6 4"/><text x="990.0" y="394" font-size="11.5" fill="#8A8A8A" text-anchor="middle" font-weight="400">name / sign / face / live_room</text><line x1="620" y1="455" x2="860" y2="455" stroke="#2E9E5B" stroke-width="1.6" marker-end="url(#arr)"/><text x="740.0" y="449" font-size="11.5" fill="#2E9E5B" text-anchor="middle" font-weight="600">fetch_bilibili_user_stat(mid)</text><line x1="860" y1="505" x2="1120" y2="505" stroke="#C0392B" stroke-width="1.6" marker-end="url(#arr)"/><text x="990.0" y="499" font-size="11.5" fill="#C0392B" text-anchor="middle" font-weight="600">GET /x/relation/stat?vmid=mid</text><line x1="1120" y1="555" x2="860" y2="555" stroke="#8A8A8A" stroke-width="1.6" stroke-dasharray="6 4"/><text x="990.0" y="549" font-size="11.5" fill="#8A8A8A" text-anchor="middle" font-weight="400">follower / following</text><line x1="620" y1="615" x2="1340" y2="615" stroke="#B7950B" stroke-width="1.6" marker-end="url(#arr)"/><text x="980.0" y="609" font-size="11.5" fill="#B7950B" text-anchor="middle" font-weight="600">更新 account 字段（头像变更 → 下载缓存）</text><line x1="620" y1="655" x2="1340" y2="655" stroke="#B7950B" stroke-width="1.6" marker-end="url(#arr)"/><text x="980.0" y="649" font-size="11.5" fill="#B7950B" text-anchor="middle" font-weight="600">commit()</text><line x1="620" y1="700" x2="380" y2="700" stroke="#8A8A8A" stroke-width="1.6" stroke-dasharray="6 4"/><text x="500.0" y="694" font-size="11.5" fill="#8A8A8A" text-anchor="middle" font-weight="400">FetchResult{success, failed, skipped, details}</text><line x1="380" y1="745" x2="160" y2="745" stroke="#8A8A8A" stroke-width="1.6" stroke-dasharray="6 4"/><text x="270.0" y="739" font-size="11.5" fill="#8A8A8A" text-anchor="middle" font-weight="400">200 {status:'done', message, result}</text><rect x="600" y="268" width="560" height="300" rx="8" fill="none" stroke="#2E9E5B" stroke-width="1.4" stroke-dasharray="6 4"/><text x="614" y="290" font-size="11.5" fill="#2E9E5B" text-anchor="start" font-weight="700">循环：每个 Account · 请求间隔 3~5s · 每 10 个休息 60s · 风控冷却 600s 后自愈</text></svg>