<svg xmlns="http://www.w3.org/2000/svg" width="1260" height="520" viewBox="0 0 1260 520" font-family="'Segoe UI','Microsoft YaHei','PingFang SC',sans-serif"><defs>
<marker id="arr" viewBox="0 0 10 10" refX="9" refY="5" markerWidth="7" markerHeight="7" orient="auto-start-reverse"><path d="M0,0 L10,5 L0,10 z" fill="#2F6FAD"/></marker>
<marker id="arrG" viewBox="0 0 10 10" refX="9" refY="5" markerWidth="7" markerHeight="7" orient="auto-start-reverse"><path d="M0,0 L10,5 L0,10 z" fill="#8A8A8A"/></marker>
<marker id="arrO" viewBox="0 0 10 10" refX="9" refY="5" markerWidth="7" markerHeight="7" orient="auto-start-reverse"><path d="M0,0 L10,5 L0,10 z" fill="#C05621"/></marker>
<marker id="arrG2" viewBox="0 0 10 10" refX="9" refY="5" markerWidth="7" markerHeight="7" orient="auto-start-reverse"><path d="M0,0 L10,5 L0,10 z" fill="#2E9E5B"/></marker>
</defs><text x="60" y="44" font-size="18" fill="#1F3A5F" text-anchor="start" font-weight="700">版本演进时间线（2026-08-04 → 2026-08-06 · devlog 001~012）</text><text x="60" y="76" font-size="12.5" fill="#5B6B7C" text-anchor="start" font-weight="400">三天内 12 个版本：单表 Demo → 带认证/风控的后端 → 三表多平台架构</text><line x1="70" y1="320" x2="1180" y2="320" stroke="#9AA5B1" stroke-width="2"/><circle cx="70" cy="320" r="7" fill="#2E86C1" stroke="#FFFFFF" stroke-width="2"/><text x="70" y="344" font-size="13.5" fill="#2E86C1" text-anchor="middle" font-weight="700">v0.1.0</text><text x="70" y="362" font-size="10.5" fill="#8A8A8A" text-anchor="middle" font-weight="400">08-04</text><text x="70" y="286" font-size="11.5" fill="#334155" text-anchor="middle" font-weight="600">项目初始化</text><text x="70" y="302" font-size="11.5" fill="#5B6B7C" text-anchor="middle" font-weight="400">单表+WBI+定时</text><line x1="70" y1="308" x2="70" y2="313" stroke="#2E86C1" stroke-width="1.4"/><circle cx="170" cy="320" r="7" fill="#2E86C1" stroke="#FFFFFF" stroke-width="2"/><text x="170" y="344" font-size="13.5" fill="#2E86C1" text-anchor="middle" font-weight="700">v0.1.1</text><text x="170" y="362" font-size="10.5" fill="#8A8A8A" text-anchor="middle" font-weight="400">08-04</text><text x="170" y="384" font-size="11.5" fill="#334155" text-anchor="middle" font-weight="600">问题修复</text><text x="170" y="400" font-size="11.5" fill="#5B6B7C" text-anchor="middle" font-weight="400">配置/日志/测试</text><line x1="170" y1="327" x2="170" y2="372" stroke="#2E86C1" stroke-width="1.4"/><circle cx="270" cy="320" r="7" fill="#2E86C1" stroke="#FFFFFF" stroke-width="2"/><text x="270" y="344" font-size="13.5" fill="#2E86C1" text-anchor="middle" font-weight="700">v0.1.2</text><text x="270" y="362" font-size="10.5" fill="#8A8A8A" text-anchor="middle" font-weight="400">08-04</text><text x="270" y="286" font-size="11.5" fill="#334155" text-anchor="middle" font-weight="600">Cookie 续期</text><text x="270" y="302" font-size="11.5" fill="#5B6B7C" text-anchor="middle" font-weight="400">+ 扫码登录</text><line x1="270" y1="308" x2="270" y2="313" stroke="#2E86C1" stroke-width="1.4"/><circle cx="370" cy="320" r="7" fill="#2E86C1" stroke="#FFFFFF" stroke-width="2"/><text x="370" y="344" font-size="13.5" fill="#2E86C1" text-anchor="middle" font-weight="700">v0.1.3</text><text x="370" y="362" font-size="10.5" fill="#8A8A8A" text-anchor="middle" font-weight="400">08-04</text><text x="370" y="384" font-size="11.5" fill="#334155" text-anchor="middle" font-weight="600">手动触发抓取</text><text x="370" y="400" font-size="11.5" fill="#5B6B7C" text-anchor="middle" font-weight="400">/vtuber/fetch</text><line x1="370" y1="327" x2="370" y2="372" stroke="#2E86C1" stroke-width="1.4"/><circle cx="470" cy="320" r="7" fill="#2E86C1" stroke="#FFFFFF" stroke-width="2"/><text x="470" y="344" font-size="13.5" fill="#2E86C1" text-anchor="middle" font-weight="700">v0.1.4</text><text x="470" y="362" font-size="10.5" fill="#8A8A8A" text-anchor="middle" font-weight="400">08-04</text><text x="470" y="286" font-size="11.5" fill="#334155" text-anchor="middle" font-weight="600">移除 Flet</text><text x="470" y="302" font-size="11.5" fill="#5B6B7C" text-anchor="middle" font-weight="400">专注后端 API</text><line x1="470" y1="308" x2="470" y2="313" stroke="#2E86C1" stroke-width="1.4"/><circle cx="570" cy="320" r="7" fill="#E67E22" stroke="#FFFFFF" stroke-width="2"/><text x="570" y="344" font-size="13.5" fill="#E67E22" text-anchor="middle" font-weight="700">v0.2.0</text><text x="570" y="362" font-size="10.5" fill="#8A8A8A" text-anchor="middle" font-weight="400">08-04</text><text x="570" y="384" font-size="11.5" fill="#334155" text-anchor="middle" font-weight="600">扩展字段</text><text x="570" y="400" font-size="11.5" fill="#5B6B7C" text-anchor="middle" font-weight="400">变动/稳定策略</text><line x1="570" y1="327" x2="570" y2="372" stroke="#E67E22" stroke-width="1.4"/><circle cx="670" cy="320" r="7" fill="#E67E22" stroke="#FFFFFF" stroke-width="2"/><text x="670" y="344" font-size="13.5" fill="#E67E22" text-anchor="middle" font-weight="700">v0.2.1</text><text x="670" y="362" font-size="10.5" fill="#8A8A8A" text-anchor="middle" font-weight="400">08-04</text><text x="670" y="286" font-size="11.5" fill="#334155" text-anchor="middle" font-weight="600">文件导入</text><text x="670" y="302" font-size="11.5" fill="#5B6B7C" text-anchor="middle" font-weight="400">vtubers.txt 去重</text><line x1="670" y1="308" x2="670" y2="313" stroke="#E67E22" stroke-width="1.4"/><circle cx="770" cy="320" r="7" fill="#E67E22" stroke="#FFFFFF" stroke-width="2"/><text x="770" y="344" font-size="13.5" fill="#E67E22" text-anchor="middle" font-weight="700">v0.2.2</text><text x="770" y="362" font-size="10.5" fill="#8A8A8A" text-anchor="middle" font-weight="400">08-04</text><text x="770" y="384" font-size="11.5" fill="#334155" text-anchor="middle" font-weight="600">头像持久化</text><text x="770" y="400" font-size="11.5" fill="#5B6B7C" text-anchor="middle" font-weight="400">本地缓存</text><line x1="770" y1="327" x2="770" y2="372" stroke="#E67E22" stroke-width="1.4"/><circle cx="870" cy="320" r="7" fill="#E67E22" stroke="#FFFFFF" stroke-width="2"/><text x="870" y="344" font-size="13.5" fill="#E67E22" text-anchor="middle" font-weight="700">v0.2.3</text><text x="870" y="362" font-size="10.5" fill="#8A8A8A" text-anchor="middle" font-weight="400">08-04</text><text x="870" y="286" font-size="11.5" fill="#334155" text-anchor="middle" font-weight="600">直播区发现</text><text x="870" y="302" font-size="11.5" fill="#5B6B7C" text-anchor="middle" font-weight="400">（后移除）</text><line x1="870" y1="308" x2="870" y2="313" stroke="#E67E22" stroke-width="1.4"/><circle cx="970" cy="320" r="7" fill="#E67E22" stroke="#FFFFFF" stroke-width="2"/><text x="970" y="344" font-size="13.5" fill="#E67E22" text-anchor="middle" font-weight="700">v0.2.4</text><text x="970" y="362" font-size="10.5" fill="#8A8A8A" text-anchor="middle" font-weight="400">08-04</text><text x="970" y="384" font-size="11.5" fill="#334155" text-anchor="middle" font-weight="600">拆分发现脚本</text><text x="970" y="400" font-size="11.5" fill="#5B6B7C" text-anchor="middle" font-weight="400">精简服务器</text><line x1="970" y1="327" x2="970" y2="372" stroke="#E67E22" stroke-width="1.4"/><circle cx="1070" cy="320" r="7" fill="#27AE60" stroke="#FFFFFF" stroke-width="2"/><text x="1070" y="344" font-size="13.5" fill="#27AE60" text-anchor="middle" font-weight="700">v0.3.0</text><text x="1070" y="362" font-size="10.5" fill="#8A8A8A" text-anchor="middle" font-weight="400">08-05</text><text x="1070" y="286" font-size="11.5" fill="#334155" text-anchor="middle" font-weight="600">三表重构</text><text x="1070" y="302" font-size="11.5" fill="#5B6B7C" text-anchor="middle" font-weight="400">vtubers/accounts/posts</text><line x1="1070" y1="308" x2="1070" y2="313" stroke="#27AE60" stroke-width="1.4"/><circle cx="1170" cy="320" r="7" fill="#27AE60" stroke="#FFFFFF" stroke-width="2"/><text x="1170" y="344" font-size="13.5" fill="#27AE60" text-anchor="middle" font-weight="700">v0.3.1</text><text x="1170" y="362" font-size="10.5" fill="#8A8A8A" text-anchor="middle" font-weight="400">08-06</text><text x="1170" y="384" font-size="11.5" fill="#334155" text-anchor="middle" font-weight="600">帖子链路优化</text><text x="1170" y="400" font-size="11.5" fill="#5B6B7C" text-anchor="middle" font-weight="400">详情/全量/归档</text><line x1="1170" y1="327" x2="1170" y2="372" stroke="#27AE60" stroke-width="1.4"/><rect x="70" y="430" width="1140" height="52" rx="8" fill="#FBFDFB" stroke="#D0C9B0" stroke-width="1.5"/><text x="90" y="462" font-size="12" fill="#1F2937" text-anchor="start" font-weight="700">阶段划分：</text><text x="190" y="462" font-size="12" fill="#4A4A4A" text-anchor="start" font-weight="400">v0.1.x 基础搭建（FastAPI + WBI + 定时 + 认证 + 手动触发）　·　v0.2.x 数据增强（字段/导入/头像/发现脚本）　·　v0.3.x 三表重构（多平台 + 帖子抓取链路）</text></svg>